<?xml version="1.0" encoding="UTF-8" standalone="no"?>
<svg
   xmlns:dc="http://purl.org/dc/elements/1.1/"
   xmlns:cc="http://creativecommons.org/ns#"
   xmlns:rdf="http://www.w3.org/1999/02/22-rdf-syntax-ns#"
   xmlns:svg="http://www.w3.org/2000/svg"
   xmlns="http://www.w3.org/2000/svg"
   xmlns:sodipodi="http://sodipodi.sourceforge.net/DTD/sodipodi-0.dtd"
   xmlns:inkscape="http://www.inkscape.org/namespaces/inkscape"
   width="58.07"
   height="61.217628"
   viewBox="0 0 15.364354 16.197165"
   version="1.1"
   id="svg8"
   inkscape:version="1.0.2 (e86c870879, 2021-01-15)"
   sodipodi:docname="default.svg">
  <defs
     id="defs2" />
  <sodipodi:namedview
     id="base"
     pagecolor="#cecece"
     bordercolor="#666666"
     borderopacity="1.0"
     inkscape:pageopacity="0"
     inkscape:pageshadow="2"
     inkscape:zoom="9.7864266"
     inkscape:cx="18.319024"
     inkscape:cy="31.331502"
     inkscape:document-units="px"
     inkscape:current-layer="layer1"
     showgrid="false"
     units="px"
     inkscape:snap-page="true"
     showguides="false"
     inkscape:window-width="1920"
     inkscape:window-height="1016"
     inkscape:window-x="0"
     inkscape:window-y="27"
     inkscape:window-maximized="1"
     inkscape:document-rotation="0"
     inkscape:pagecheckerboard="true" />
  <metadata
     id="metadata5">
    <rdf:RDF>
      <cc:Work
         rdf:about="">
        <dc:format>image/svg+xml</dc:format>
        <dc:type
           rdf:resource="http://purl.org/dc/dcmitype/StillImage" />
        <dc:title></dc:title>
      </cc:Work>
    </rdf:RDF>
  </metadata>
  <g
     inkscape:label="Layer 1"
     inkscape:groupmode="layer"
     id="layer1"
     transform="translate(-5.0297294,-268.48744)">
    <circle
       r="7.1530104"
       cy="276.16962"
       cx="12.711906"
       id="circle828"
       style="opacity:1;fill:none;fill-opacity:1;stroke:#ffffff;stroke-width:1.05833;stroke-linecap:round;stroke-linejoin:round;stroke-miterlimit:4;stroke-dasharray:none;stroke-opacity:1" />
    <path
       sodipodi:nodetypes="cscsc"
       inkscape:connector-curvature="0"
       id="path890"
       d="m 12.038708,283.23961 c 3e-6,1.06332 -0.973363,0.898 -2.8643516,0.898 -1.6237,0 -2.8643531,0.20425 -2.8643501,-0.95095 5e-6,-1.06332 0.75325,-1.6385 2.3351831,-1.6385 1.5819336,0 3.3935136,0.62813 3.3935186,1.69145 z"
       style="opacity:1;fill:none;fill-opacity:1;stroke:#ffffff;stroke-width:1.05833;stroke-linecap:round;stroke-linejoin:round;stroke-miterlimit:4;stroke-dasharray:none;stroke-opacity:1" />
    <path
       style="opacity:1;fill:#ffffff;fill-opacity:0.244924;stroke:none;stroke-width:4.11743;stroke-linecap:round;stroke-linejoin:round;stroke-miterlimit:4;stroke-dasharray:none;stroke-opacity:1"
       d="M 64.890625,28.160156 A 27.035,27.035 0 0 1 70.179688,44.171875 27.035,27.035 0 0 1 43.144531,71.205078 27.035,27.035 0 0 1 26.298828,65.28125 27.035,27.035 0 0 0 48.044922,76.306641 27.035,27.035 0 0 0 75.080078,49.271484 27.035,27.035 0 0 0 64.890625,28.160156 Z"
       transform="matrix(0.26458334,0,0,0.26458334,0,263.13332)"
       id="circle947" />
    <ellipse
       style="opacity:1;fill:#ffffff;fill-opacity:1;stroke:none;stroke-width:1.49819;stroke-linecap:round;stroke-linejoin:round;stroke-miterlimit:4;stroke-dasharray:none;stroke-opacity:1"
       id="ellipse852"
       cx="13.921308"
       cy="274.63"
       rx="0.94797164"
       ry="1.9418802" />
    <ellipse
       style="opacity:1;fill:#ffffff;fill-opacity:1;stroke:none;stroke-width:1.49819;stroke-linecap:round;stroke-linejoin:round;stroke-miterlimit:4;stroke-dasharray:none;stroke-opacity:1"
       id="ellipse854"
       cx="16.037973"
       cy="274.63"
       rx="0.94797164"
       ry="1.9418802" />
    <path
       sodipodi:nodetypes="cscsc"
       inkscape:connector-curvature="0"
       id="path856"
       d="m 19.447043,283.23961 c 3e-6,1.06332 -0.973363,0.898 -2.864352,0.898 -1.6237,0 -2.864353,0.20425 -2.86435,-0.95095 5e-6,-1.06332 0.75325,-1.6385 2.335183,-1.6385 1.581934,0 3.393514,0.62813 3.393519,1.69145 z"
       style="opacity:1;fill:none;fill-opacity:1;stroke:#ffffff;stroke-width:1.05833;stroke-linecap:round;stroke-linejoin:round;stroke-miterlimit:4;stroke-dasharray:none;stroke-opacity:1" />
  </g>
</svg>
